<?xml version="1.0" encoding="UTF-8"?>
<!DOCTYPE svg PUBLIC "-//W3C//DTD SVG 1.1//EN" "http://www.w3.org/Graphics/SVG/1.1/DTD/svg11.dtd">
<svg xmlns="http://www.w3.org/2000/svg" version="1.1" width="12500px" height="12500px" style="shape-rendering:geometricPrecision; text-rendering:geometricPrecision; image-rendering:optimizeQuality; fill-rule:evenodd; clip-rule:evenodd" xmlns:xlink="http://www.w3.org/1999/xlink">
<g><path style="opacity:0.012" fill="#2f2f2f" d="M 6125.5,-0.5 C 6201.17,-0.5 6276.83,-0.5 6352.5,-0.5C 6964.79,10.9365 7562.79,109.436 8146.5,295C 8678.18,466.033 9177.18,703.033 9643.5,1006C 10156.1,1340.37 10611.9,1742.2 11011,2211.5C 11366.5,2631.65 11662.8,3091.98 11900,3592.5C 12218.4,4270.23 12410.4,4982.57 12476,5729.5C 12488.6,5876.74 12496.4,6024.08 12499.5,6171.5C 12499.5,6246.5 12499.5,6321.5 12499.5,6396.5C 12488.4,7000.95 12391.3,7591.28 12208,8167.5C 12038.9,8692.62 11804.9,9185.62 11506,9646.5C 11233.3,10064.8 10914.1,10446.6 10548.5,10792C 10116.5,11197.2 9636.85,11535.5 9109.5,11807C 8431.69,12153.1 7714.35,12370.1 6957.5,12458C 6749.99,12481.6 6541.99,12495.5 6333.5,12499.5C 6259.83,12499.5 6186.17,12499.5 6112.5,12499.5C 5358.21,12484.6 4631.21,12336.4 3931.5,12055C 3458.73,11863 3017.4,11618.7 2607.5,11322C 2209.06,11032.7 1847.56,10700.8 1523,10326.5C 1162.08,9908.06 860.082,9449.06 617,8949.5C 338.077,8372.9 152.744,7767.23 61,7132.5C 25.0203,6879.26 4.52032,6624.92 -0.5,6369.5C -0.5,6295.5 -0.5,6221.5 -0.5,6147.5C 11.8066,5492 123.973,4854 336,4233.5C 517.515,3708.47 762.849,3217.14 1072,2759.5C 1266.6,2472.45 1483.6,2202.45 1723,1949.5C 2104.13,1549.44 2528.3,1205.27 2995.5,917C 3505.88,603.577 4050.88,368.244 4630.5,211C 5120.36,79.7582 5618.69,9.25818 6125.5,-0.5 Z"/></g>
<g><path style="opacity:0.233" fill="#de3030" d="M 7630.5,1755.5 C 7167.56,3267.64 6705.23,4779.98 6243.5,6292.5C 6159.65,6495.93 6083.82,6702.6 6016,6912.5C 5979.66,7025.2 5944.32,7138.2 5910,7251.5C 5848.03,7461.05 5786.7,7670.72 5726,7880.5C 5678.49,8042.03 5629.16,8203.03 5578,8363.5C 5536.82,8491.51 5488.15,8616.51 5432,8738.5C 5369.42,8874.45 5292.75,9001.11 5202,9118.5C 5040.66,9323.09 4836.83,9468.93 4590.5,9556C 4470.15,9597.73 4346.81,9627.06 4220.5,9644C 4105,9659.11 3989,9667.77 3872.5,9670C 3791.83,9670.67 3711.17,9670.67 3630.5,9670C 3429.18,9666.75 3227.85,9665.75 3026.5,9667C 2976.49,9667.4 2926.49,9668.4 2876.5,9670C 2817.04,9673.27 2757.54,9675.44 2698,9676.5C 2660.49,9677.24 2623.32,9674.07 2586.5,9667C 2552.81,9660.74 2524.31,9645.24 2501,9620.5C 2484.48,9597.6 2475.48,9571.94 2474,9543.5C 2472.93,9501.21 2477.6,9459.55 2488,9418.5C 2494.07,9395.48 2500.41,9372.48 2507,9349.5C 2622.07,8981.62 2736.74,8613.62 2851,8245.5C 3006.74,7741.62 3162.07,7237.62 3317,6733.5C 3726,5396.5 4135,4059.5 4544,2722.5C 4633.8,2426.77 4723.8,2131.11 4814,1835.5C 4826.72,1797.71 4845.39,1763.38 4870,1732.5C 4908.81,1691.35 4956.65,1669.52 5013.5,1667C 5792.67,1666.2 6571.84,1664.37 7351,1661.5C 7397.5,1661.67 7444,1661.83 7490.5,1662C 7556.44,1664.84 7603.11,1696.01 7630.5,1755.5 Z"/></g>
<g><path style="opacity:1" fill="#39769c" d="M 7630.5,1755.5 C 7815.93,2336.28 8001.09,2917.28 8186,3498.5C 8290.94,3829.65 8395.27,4160.98 8499,4492.5C 8603.94,4830.32 8708.27,5168.32 8812,5506.5C 9053.73,6299.35 9296.06,7092.01 9539,7884.5C 9685.18,8358.72 9833.18,8832.38 9983,9305.5C 9994.08,9343.5 10003.8,9381.84 10012,9420.5C 10019.7,9459.86 10022.1,9499.52 10019,9539.5C 10009.9,9606.27 9972.74,9648.43 9907.5,9666C 9870.83,9675.75 9833.5,9681.08 9795.5,9682C 9775.5,9682.67 9755.5,9682.67 9735.5,9682C 9667.83,9678.7 9600.16,9675.36 9532.5,9672C 9480.51,9670.1 9428.51,9668.77 9376.5,9668C 9277.17,9667.33 9177.83,9667.33 9078.5,9668C 8974.5,9669.33 8870.5,9670.67 8766.5,9672C 8668.83,9672.67 8571.17,9672.67 8473.5,9672C 8137.67,9664.11 7833.67,9563.11 7561.5,9369C 7306.19,9179.66 7123.69,8935.49 7014,8636.5C 6945.02,8430.23 6878.35,8223.23 6814,8015.5C 6720.12,7711.09 6627.12,7406.42 6535,7101.5C 6488.95,6951.3 6442.28,6801.3 6395,6651.5C 6380.63,6596 6365.63,6540.67 6350,6485.5C 6334.43,6432.04 6311.1,6382.37 6280,6336.5C 6268.75,6321.08 6256.59,6306.42 6243.5,6292.5C 6705.23,4779.98 7167.56,3267.64 7630.5,1755.5 Z"/></g>
</svg>
